<svg xmlns="http://www.w3.org/2000/svg" width="16" height="12" viewBox="0 0 16 12">
	<style type="text/css">
		.st0{fill:#e86625;}
	</style>
	<path class="st0" d="M15,3L1,3L1,2C1,1.44 1.44,1 2,1L14,1C14.55,1 15,1.44 15,2ZM15,10C15,10.55 14.55,11 14,11L2,11C1.44,11 1,10.55 1,10L1,5L15,5ZM14,0L2,0C0.89,0 0,0.9 0,2L0,10C0,11.1 0.89,12 2,12L14,12C15.1,12 16,11.1 16,10L16,2C16,0.9 15.1,0 14,0"/>
	<path class="st0" d="M2 6L8 6L8 7L2 7Z"/>
	<path class="st0" d="M2 8L4 8L4 9L2 9Z"/>
	<path class="st0" d="M11 6L14 6L14 8L11 8Z"/>
</svg>