<svg xmlns="http://www.w3.org/2000/svg" width="16" height="14" viewBox="0 0 16 14">
	<style type="text/css">
		.st0{fill:#e86625;}
	</style>
	<path class="st0" d="M4,10C2.89,10 2,10.89 2,12C2,13.1 2.89,14 4,14C5.1,14 6,13.1 6,12C6,10.89 5.1,10 4,10"/>
	<path class="st0" d="M13,10C11.89,10 11,10.89 11,12C11,13.1 11.89,14 13,14C14.1,14 15,13.1 15,12C15,10.89 14.1,10 13,10"/>
	<path class="st0" d="M5,6L2,6L3,3L5,3ZM15.5,0L5.5,0C5.22,0 5,0.22 5,0.5L5,2L2.5,2C2.22,2 1.89,2.2 1.77,2.44L0.22,5.55C0.09,5.79 0,6.22 0,6.5L0,9.5C0,9.77 0.15,10.15 0.35,10.35L0.64,10.64C0.77,10.77 0.98,10.88 1.19,10.94C1.62,9.81 2.71,9 4,9C5.3,9 6.4,9.83 6.81,11L10.18,11C10.59,9.83 11.69,9 13,9C14.26,9 15.34,9.78 15.78,10.89C15.9,10.8 16,10.66 16,10.5L16,0.5C16,0.22 15.77,0 15.5,0"/>
</svg>